# xmcd
#
# Track frame offsets:
#	150
#	15285
#	29721
#	43779
#	58149
#	72084
#	86796
#	101665
#	115747
#	131842
#	146031
#	160938
#
# Disc length: 2333 seconds
#
# Revision: 6
# Processed by: cddbd v1.5.2PL0 Copyright (c) Steve Scherf et al.
# Submitted via: EasyCDDAExtractor 12.0.4.1
#
DISCID=aa091b0c
DTITLE=ทูล ทองใจ - รวมเพลงทูลทองใจ ชุดเงินล้าน
DYEAR=1977
DGENRE=Country
TTITLE0=นิราศเวียงพิงค์
TTITLE1=คืนอำลา
TTITLE2=คืนนั้นสวรรค์
TTITLE3=จินตนารำลึก
TTITLE4=นกเขาขันฉันครวญ
TTITLE5=หวนคะนึง
TTITLE6=รักฝังใจ
TTITLE7=นางแก้ว
TTITLE8=ฝันสวาท
TTITLE9=เหนือดวงชีวา
TTITLE10=แล้วจะรู้ว่าพี่รัก
TTITLE11=ดอยสาวครวญ
EXTD=
EXTT0=
EXTT1=
EXTT2=
EXTT3=
EXTT4=
EXTT5=
EXTT6=
EXTT7=
EXTT8=
EXTT9=
EXTT10=
EXTT11=
PLAYORDER=
